<svg width="270" height="37" viewBox="0 0 270 37" fill="none" xmlns="http://www.w3.org/2000/svg">
<path d="M0 0H0.185751C0.908118 0.542736 7.07919 6.63112 18.699 18.2652H18.8847C18.8847 18.0564 24.9406 11.968 37.0522 0H37.238V36.6399L36.8975 36.953H21.0725L20.701 36.6399V26.8393H16.7279V36.6399L16.3564 36.953H0.340544L0 36.6399V0Z" fill="#231F20"/>
<path fill-rule="evenodd" clip-rule="evenodd" d="M64.2803 17.6494C63.9243 17.0283 63.5528 16.4491 63.1658 15.9063C63.539 14.8709 63.812 13.8013 63.981 12.7125C64.227 11.1789 64.03 9.60593 63.4135 8.18279C63.0368 7.04513 62.4589 7.74442 62.3815 7.98448C62.0295 9.69629 61.4751 11.3591 60.7304 12.9369L60.6272 13.13C58.5199 11.3002 55.8247 10.3111 53.0475 10.3485H52.6296C51.0659 10.4053 49.5204 10.7063 48.0477 11.2409C46.968 11.8219 45.9452 12.5051 44.9931 13.2814C44.9312 13.1613 44.8744 13.0622 44.8125 12.9369C44.0654 11.36 43.511 9.69697 43.1614 7.98448C43.1046 7.74442 42.5267 7.04513 42.1294 8.18279C41.5178 9.60732 41.3226 11.1793 41.567 12.7125C41.74 13.8235 42.0218 14.9143 42.4081 15.969C40.8547 18.115 40.0359 20.7149 40.0759 23.3742V23.9274C40.1241 25.994 40.6097 28.0262 41.5 29.887C44.3481 34.5977 48.132 36.953 52.8514 36.953C54.6779 36.8899 56.4752 36.4717 58.1453 35.7214C63.1194 32.9173 65.6064 28.9512 65.6064 23.823V23.7186C65.6128 21.6213 65.1599 19.5486 64.2803 17.6494ZM60.2712 22.6958H45.4472V20.41H60.2712V22.6958Z" fill="#231F20"/>
<path d="M108.18 10.1398C110.618 10.1398 113.267 10.9365 116.126 12.5299L116.177 12.6082V20.1178H116.126L111.683 19.408V20.8014C112.822 20.8014 114.163 21.4485 115.708 22.7427C116.74 23.9917 117.256 25.6391 117.256 27.6848C117.256 31.9014 115.775 34.7368 112.813 36.1911C111.403 36.7239 109.906 36.9824 108.401 36.953L106.688 36.8747V36.7965L106.606 36.8747C103.441 36.3181 101.018 35.3909 99.3357 34.0932V26.8967H99.3873L103.195 27.5282V26.1348C102.452 26.1348 101.484 25.5921 100.29 24.5066C99.2342 23.1915 98.7062 21.4398 98.7062 19.2515C98.72 13.177 101.878 10.1398 108.18 10.1398Z" fill="#231F20"/>
<path d="M137.183 10.4007L137.42 10.6094V19.6429L137.25 19.8307H133.302V36.7704L133.148 36.953H124.376L124.216 36.7704V30.9934L124.35 19.8307H120.222L120.068 19.6429V10.6094L120.233 10.4007H137.183Z" fill="#231F20"/>
<path d="M140.449 10.1398H158.833L159.044 10.3746V17.0701L158.833 17.2841H151.981V19.1993H159.669L159.875 19.408V27.1368L159.669 27.3455H151.981V29.0259H160.603L160.809 29.2399V36.7182L160.603 36.953H140.449L140.242 36.7182V10.3746L140.449 10.1398Z" fill="#231F20"/>
<path d="M163.74 10.3485H174.059C176.189 10.3485 178.067 11.601 179.694 14.1059C180.617 15.8025 181.103 17.7065 181.108 19.6429C181.13 21.9792 180.318 24.2454 178.822 26.0252C177.838 27.0272 177.25 27.5282 177.057 27.5282L181.887 36.9217L181.835 36.9739H173.786C173.616 36.833 173.074 35.7423 172.176 33.6914H172.099V36.9739H163.74L163.637 36.8434V10.479L163.74 10.3485Z" fill="#231F20"/>
<path d="M195.22 0H208.279L208.568 0.287024V22.9619L208.454 25.399L213.826 25.2372H220.017L220.172 25.399H220.306L220.435 30.6176V36.666L220.172 36.953H195.22L194.956 36.666V0.287024L195.22 0Z" fill="#231F20"/>
<path fill-rule="evenodd" clip-rule="evenodd" d="M245.176 23.5568C244.021 14.7548 243.346 10.352 243.154 10.3485H242.457C242.709 9.54174 242.899 8.71648 243.025 7.88012C243.27 6.34642 243.073 4.77358 242.457 3.35036C242.086 2.2127 241.503 2.91199 241.425 3.15205C241.076 4.86454 240.521 6.52761 239.774 8.10452C239.396 8.88369 238.961 9.6337 238.474 10.3485H231.756C231.269 9.6337 230.834 8.88369 230.456 8.10452C229.707 6.52098 229.152 4.85081 228.804 3.13118C228.748 2.89112 228.165 2.19182 227.773 3.32948C227.159 4.75339 226.963 6.32603 227.21 7.85924C227.342 8.69544 227.535 9.52053 227.788 10.3276H227.03L226.952 10.4059L223.082 36.8539H223.16L223.242 36.9322H232.406C232.53 36.9322 232.874 34.963 233.438 31.0247H236.833L236.91 31.5987C237.395 35.1578 237.707 36.9356 237.844 36.9322H247.101L247.178 36.8539L245.176 23.5568ZM241.198 19.9769C239.96 20.9928 238.83 21.5007 237.808 21.5007C237.366 21.5 236.927 21.426 236.508 21.2815C235.836 21.0321 235.178 20.7464 234.537 20.4257C233.869 20.0478 233.131 19.8116 232.37 19.7316C231.362 19.7316 230.258 20.2709 229.057 21.3494V18.8705C229.99 17.9578 231.218 17.4182 232.514 17.3519C233.553 17.4503 234.56 17.761 235.476 18.2652C236.252 18.7105 237.108 18.996 237.994 19.1054C238.93 19.1054 239.998 18.5678 241.198 17.4928V19.9769Z" fill="#231F20"/>
<path d="M68.403 35.9197V10.7295L68.6609 10.3485H78.707L86.8594 18.6409C86.8904 17.879 86.8594 12.2898 86.8594 10.7295C86.9468 10.5971 87.0415 10.4699 87.1432 10.3485H95.5846L95.8942 10.7295V35.9197L95.5846 36.3372H86.5395L81.4623 32.0788V35.9197C81.225 36.2329 81.163 36.3372 81.163 36.3372H68.6609L68.403 35.9197Z" fill="#231F20"/>
<path d="M269.897 27.0637V26.8393C269.897 26.7506 269.845 26.6723 269.825 26.5784C269.527 25.0226 268.835 23.5715 267.817 22.367V22.1008C268.526 20.9201 268.896 19.563 268.885 18.1817C268.886 17.0566 268.649 15.9445 268.189 14.92L268.158 14.8522C268.022 14.5605 267.87 14.2766 267.704 14.0015L267.626 13.8815C266.948 12.8197 266.037 11.9309 264.962 11.2845C263.888 10.6381 262.681 10.2517 261.435 10.1554H261.378H261.146C261.032 10.1554 260.919 10.1554 260.805 10.1554C260.692 10.1554 260.583 10.1554 260.475 10.1554H250.058L249.851 10.3642V36.7443L250.058 36.953H260.532C260.841 36.9843 261.151 37 261.461 37C266.146 37 270 33.5035 270 28.3945C269.997 27.949 269.963 27.5043 269.897 27.0637Z" fill="#231F20"/>
</svg>
