<svg width="270" height="17" viewBox="0 0 270 17" fill="none" xmlns="http://www.w3.org/2000/svg">
<path d="M5.99323 0.438721H8.42668L14.2029 16.5247H11.8418L10.1782 11.7094H3.93693L2.21129 16.5247H0L5.99323 0.438721ZM9.5685 9.92321L7.11954 2.82551L4.57242 9.92321H9.5685Z" fill="#231F20"/>
<path d="M16.409 0.43871H23.6422C24.6496 0.397378 25.6539 0.575496 26.5872 0.960983C28.0597 1.64516 28.7933 2.91429 28.7933 4.75791C28.8295 5.58843 28.6229 6.41132 28.1992 7.12381C27.7893 7.75562 27.2204 8.26576 26.551 8.60184C27.0978 8.80653 27.581 9.15439 27.9512 9.60983C28.3173 10.219 28.4971 10.9241 28.4678 11.6363L28.5453 13.7932C28.5485 14.2534 28.5987 14.7119 28.6952 15.1616C28.7213 15.3777 28.7989 15.5842 28.9213 15.7634C29.0437 15.9426 29.2072 16.0891 29.3978 16.1905V16.5508H26.7577C26.6738 16.3865 26.6146 16.2105 26.582 16.0286C26.5219 15.6062 26.4857 15.1807 26.4735 14.7542L26.3495 12.0384C26.2979 10.9939 25.9259 10.2783 25.2232 9.92319C24.6227 9.68958 23.9798 9.58809 23.3374 9.6255H18.5635V16.5247H16.409V0.43871ZM23.4098 7.8341C24.2319 7.87895 25.0477 7.6655 25.745 7.22304C26.3185 6.81045 26.6027 6.07404 26.6027 5.0086C26.6027 3.94316 26.2049 3.08141 25.404 2.66359C24.8633 2.4214 24.2745 2.30879 23.6836 2.33456H18.5635V7.8341H23.4098Z" fill="#231F20"/>
<path d="M43.3527 0.438721V2.35546H37.9898V16.5247H35.8147V2.35546H30.4518V0.438721H43.3527Z" fill="#231F20"/>
<path d="M52.6216 5.60922C52.4018 5.11646 52.2856 4.58291 52.2806 4.0424C52.2662 3.5634 52.3507 3.08664 52.5286 2.64244C52.7065 2.19825 52.9739 1.79637 53.3139 1.46237C53.6836 1.10933 54.1197 0.834947 54.5963 0.655515C55.0729 0.476083 55.5802 0.395253 56.0883 0.417821C56.5602 0.390449 57.0327 0.460622 57.4769 0.624055C57.921 0.787487 58.3275 1.04075 58.6716 1.36836C58.9708 1.66472 59.2074 2.01928 59.3673 2.41066C59.5271 2.80203 59.6068 3.22209 59.6016 3.64547C59.6157 4.63511 59.2743 5.59632 58.6406 6.35085C58.0865 6.95643 57.4539 7.48348 56.76 7.91767L59.6533 11.4221C59.8444 10.8424 59.9788 10.4037 60.0511 10.1164C60.1502 9.71709 60.2278 9.3126 60.2836 8.90476H62.1332C62.0161 9.91973 61.7695 10.9151 61.3996 11.8661C61.0327 12.8166 60.8519 13.1926 60.8519 13.0098L63.6729 16.483H61.1619L59.6739 14.6446C59.2015 15.192 58.6575 15.6717 58.0568 16.0704C57.1611 16.6048 56.1363 16.8778 55.0964 16.859C53.4482 16.859 52.2496 16.4046 51.4798 15.5063C50.7531 14.6603 50.3547 13.5766 50.3586 12.4562C50.3214 11.3342 50.7116 10.2406 51.4488 9.40092C52.1987 8.67465 53.0373 8.04809 53.9442 7.53641C53.4142 6.9614 52.9688 6.31237 52.6216 5.60922ZM57.3076 14.6237C57.8286 14.3037 58.2788 13.8788 58.6303 13.3754L55.0499 8.94132C54.3306 9.384 53.6648 9.90982 53.0659 10.5081C52.585 11.0689 52.3321 11.7929 52.3581 12.5346C52.3388 12.914 52.4127 13.2923 52.5732 13.6358C52.7336 13.9794 52.9757 14.2775 53.2777 14.5035C53.8471 14.9287 54.5383 15.1542 55.2462 15.1459C55.969 15.1785 56.6855 14.997 57.3076 14.6237ZM57.1526 5.50476C57.5588 5.05322 57.7836 4.46468 57.783 3.85438C57.8014 3.3991 57.646 2.95407 57.349 2.61137C57.1907 2.43766 56.9968 2.30093 56.7808 2.21073C56.5649 2.12053 56.3321 2.07902 56.0987 2.0891C55.7751 2.05443 55.4483 2.11185 55.1553 2.25489C54.8622 2.39792 54.6146 2.62088 54.4402 2.89862C54.2806 3.17212 54.1984 3.48466 54.2025 3.80215C54.2037 4.25428 54.3289 4.69722 54.5642 5.08172C54.9251 5.63725 55.3312 6.16134 55.7783 6.64854C56.2766 6.31349 56.7374 5.92473 57.1526 5.4891V5.50476Z" fill="#231F20"/>
<path d="M72.1719 0.438726H78.5319C79.4959 0.390728 80.457 0.579999 81.3326 0.990279C82.2082 1.40056 82.9722 2.01958 83.559 2.79418C84.6736 4.37871 85.2336 6.29379 85.1503 8.23627C85.177 9.83096 84.8578 11.4122 84.2152 12.8688C83.1095 15.3061 81.2151 16.5247 78.5319 16.5247H72.1719V0.438726ZM78.1134 14.6655C78.7072 14.6809 79.2998 14.6034 79.8701 14.4357C80.7054 14.1339 81.4142 13.5537 81.8799 12.7905C82.3401 12.0262 82.6473 11.178 82.784 10.294C82.8844 9.73729 82.938 9.17296 82.9442 8.60708C82.9442 6.61722 82.5567 5.06607 81.792 3.96407C81.0274 2.86208 79.7926 2.30847 78.0876 2.30847H74.3522V14.6655H78.1134Z" fill="#231F20"/>
<path d="M88.3019 0.438721H99.8544V2.40769H90.415V7.31184H99.1465V9.17113H90.415V14.6237H100.025V16.5404H88.3019V0.438721Z" fill="#231F20"/>
<path d="M104.308 11.3333C104.314 12.1235 104.526 12.8981 104.923 13.5791C105.612 14.6445 106.817 15.1773 108.539 15.1773C109.264 15.1872 109.984 15.0688 110.668 14.8273C111.908 14.3747 112.528 13.5652 112.528 12.3988C112.562 12.0443 112.508 11.6869 112.37 11.3593C112.231 11.0317 112.014 10.7444 111.737 10.5238C110.967 10.0628 110.122 9.74115 109.242 9.57326L107.15 9.0771C106.134 8.89596 105.156 8.54282 104.256 8.03256C103.774 7.69537 103.387 7.23648 103.134 6.70143C102.881 6.16639 102.771 5.5738 102.815 4.98248C102.794 4.32005 102.913 3.66071 103.162 3.04775C103.411 2.43478 103.786 1.88204 104.261 1.4258C105.219 0.496153 106.581 0.0313295 108.348 0.0313295C109.819 -0.0125688 111.266 0.415232 112.481 1.25345C113.615 2.0682 114.181 3.3704 114.181 5.16005H112.156C112.107 4.45155 111.877 3.76794 111.489 3.17542C110.873 2.33281 109.805 1.91325 108.286 1.91674C107.067 1.91674 106.194 2.18832 105.656 2.72626C105.409 2.9718 105.212 3.26529 105.079 3.58923C104.946 3.91316 104.879 4.26089 104.881 4.61167C104.861 4.9607 104.939 5.30839 105.107 5.61437C105.274 5.92035 105.524 6.1721 105.827 6.34039C106.725 6.73678 107.665 7.03106 108.627 7.21781L110.792 7.74008C111.655 7.91439 112.475 8.2606 113.205 8.75852C113.687 9.1432 114.07 9.63986 114.322 10.2063C114.574 10.7728 114.687 11.3923 114.651 12.0123C114.651 13.7985 114.026 15.0728 112.776 15.8353C111.459 16.6221 109.95 17.0218 108.421 16.9895C106.488 16.9895 104.98 16.4673 103.884 15.4541C103.338 14.9263 102.913 14.2837 102.639 13.5717C102.364 12.8598 102.248 12.0957 102.298 11.3333H104.308Z" fill="#231F20"/>
<path d="M118.185 0.438721H120.381V16.5247H118.206L118.185 0.438721Z" fill="#231F20"/>
<path d="M134.455 0.898324C136.015 1.74093 136.969 3.212 137.317 5.31153H135.183C135.101 4.79874 134.919 4.30752 134.648 3.86642C134.377 3.42531 134.021 3.04309 133.602 2.74195C132.696 2.17791 131.644 1.89804 130.58 1.93765C129.888 1.9279 129.203 2.07317 128.573 2.36304C127.943 2.65291 127.385 3.08018 126.938 3.61415C125.949 4.73181 125.455 6.39612 125.455 8.60708C125.378 10.2629 125.803 11.9028 126.674 13.3075C127.49 14.5088 128.818 15.1094 130.657 15.1094C131.941 15.1551 133.193 14.7008 134.155 13.8403C135.08 12.9994 135.55 11.6363 135.576 9.75086H130.59V7.91768H137.581V16.5247H136.191L135.674 14.4357C135.13 15.0968 134.484 15.6663 133.763 16.1226C132.667 16.7104 131.437 16.9968 130.198 16.953C128.427 16.9846 126.712 16.3221 125.413 15.1042C123.956 13.5373 123.228 11.4482 123.228 8.7272C123.228 6.00616 123.941 3.89095 125.367 2.29802C126.022 1.54591 126.834 0.949803 127.744 0.552486C128.655 0.155168 129.641 -0.0335039 130.632 1.38034e-05C131.96 -0.0286751 133.275 0.280197 134.455 0.898324Z" fill="#231F20"/>
<path d="M141.12 0.438721H143.662L151.598 13.4381V0.438721H153.664V16.5247H151.241L143.181 3.54103V16.5247H141.115L141.12 0.438721Z" fill="#231F20"/>
<path d="M166.741 0.438721H169.174L174.951 16.5247H172.589L170.926 11.7094H164.685L162.959 16.5247H160.748L166.741 0.438721ZM170.316 9.92321L167.867 2.82551L165.33 9.92321H170.316Z" fill="#231F20"/>
<path d="M188.151 1.60861C189.186 2.5578 189.839 3.85936 189.985 5.26452H187.882C187.696 4.30962 187.204 3.44327 186.482 2.79939C185.643 2.14705 184.599 1.8242 183.543 1.89063C182.833 1.86241 182.126 1.99883 181.477 2.28944C180.828 2.58005 180.253 3.01712 179.797 3.56713C178.85 4.68132 178.376 6.38915 178.376 8.69063C178.302 10.3189 178.751 11.9277 179.657 13.2762C180.515 14.4513 181.786 15.0363 183.486 15.0363C184.188 15.0696 184.886 14.9165 185.512 14.5921C186.137 14.2678 186.668 13.7835 187.051 13.1874C187.535 12.4043 187.863 11.5333 188.017 10.623H190.13C189.99 12.2075 189.344 13.7031 188.291 14.8848C187.647 15.5822 186.862 16.1301 185.989 16.4908C185.115 16.8514 184.175 17.0163 183.233 16.9739C181.54 17.0254 179.892 16.4178 178.629 15.2765C176.996 13.7654 176.18 11.4465 176.18 8.31982C176.093 6.2127 176.746 4.14241 178.025 2.47558C178.687 1.65992 179.528 1.0115 180.481 0.581779C181.435 0.152058 182.474 -0.0471357 183.517 4.92111e-06C185.514 4.92111e-06 187.059 0.536206 188.151 1.60861Z" fill="#231F20"/>
<path d="M197.565 0.438721H199.998L205.774 16.5247H203.413L201.75 11.7094H195.508L193.783 16.5247H191.571L197.565 0.438721ZM201.14 9.92321L198.691 2.82551L196.144 9.92321H201.14Z" fill="#231F20"/>
<path d="M207.815 0.438705H214.18C215.144 0.390671 216.104 0.579958 216.979 0.990274C217.853 1.40059 218.617 2.01964 219.202 2.79416C220.319 4.37803 220.881 6.29317 220.799 8.23625C220.822 9.83172 220.499 11.413 219.853 12.8688C218.754 15.3061 216.86 16.5247 214.17 16.5247H207.815V0.438705ZM213.757 14.6654C214.35 14.6809 214.943 14.6034 215.513 14.4356C216.351 14.1356 217.062 13.5551 217.528 12.7905C217.984 12.0248 218.29 11.177 218.427 10.294C218.53 9.73763 218.584 9.17307 218.587 8.60706C218.587 6.6172 218.205 5.06605 217.435 3.96405C216.665 2.86205 215.446 2.30844 213.736 2.30844H209.995V14.6654H213.757Z" fill="#231F20"/>
<path d="M223.95 0.438721H235.498V2.40769H226.053V7.31184H234.785V9.17113H226.053V14.6237H235.663V16.5404H223.95V0.438721Z" fill="#231F20"/>
<path d="M238.489 0.438721H241.589L246.167 14.0178L250.708 0.438721H253.777V16.5247H251.71V7.02981C251.71 6.70078 251.71 6.15762 251.71 5.40032C251.71 4.64302 251.71 3.8335 251.71 2.95608L247.164 16.5352H245.03L240.442 2.95608V3.47835C240.442 3.8718 240.452 4.47241 240.473 5.2802C240.473 6.0845 240.504 6.67989 240.504 7.05593V16.5247H238.437L238.489 0.438721Z" fill="#231F20"/>
<path d="M255.797 0.438721H258.329L262.901 8.16837L267.463 0.438721H270L263.971 10.0433V16.5247H261.816V10.0433L255.797 0.438721Z" fill="#231F20"/>
</svg>
